# xmcd
#
# Track frame offsets:
#	150
#	23292
#	51126
#	74009
#	98244
#	141754
#	165989
#	179948
#
# Disc length: 2580 seconds
#
# Revision: 3
# Processed by: cddbd v1.5.2PL0 Copyright (c) Steve Scherf et al.
# Submitted via: EasyCDDAExtractor 10.2.0.1
#
DISCID=6a0a1208
DTITLE=Van Morrison - TB Sheets
DYEAR=1974
DGENRE=Blues
TTITLE0=He Ain't Give You None
TTITLE1=Beside You
TTITLE2=It's All Right
TTITLE3=Madame George
TTITLE4=T.B. Sheets
TTITLE5=Who Drove The Red Sports Car
TTITLE6=Ro Ro Rosey
TTITLE7=Brown Eyed Girl
EXTD=
EXTT0=
EXTT1=
EXTT2=
EXTT3=
EXTT4=
EXTT5=
EXTT6=
EXTT7=
PLAYORDER=
